<svg id="Group_9" data-name="Group 9" xmlns="http://www.w3.org/2000/svg" width="261.563" height="53.971" viewBox="0 0 261.563 53.971">
  <path id="Path_1" data-name="Path 1" d="M0,0H10.542V22.629h.141c2.39-3.3,6.468-4.5,10.821-4.5,9.7,0,15.6,8.713,15.6,18.2,0,10.33-6.674,17.637-16.8,17.637a13.232,13.232,0,0,1-10.47-5.34H9.7v4.5H0ZM18.131,44.694c5.274,0,8.435-3.508,8.435-8.644s-3.16-8.641-8.435-8.641S9.7,30.923,9.7,36.05s3.163,8.644,8.432,8.644" fill="#1a1818"/>
  <path id="Path_2" data-name="Path 2" d="M35.878,36.76h-.141c-2.318,3.652-6.537,5.127-10.824,5.127-6.4,0-12.156-3.652-12.156-10.542,0-11.8,14.335-12.015,23.121-12.015,0-3.727-3.091-6.114-6.746-6.114a11.253,11.253,0,0,0-8.572,4.075l-5.625-5.76c3.868-3.658,9.49-5.484,15.04-5.484,12.3,0,15.6,6.255,15.6,17.637V41.047h-9.7Zm-2.6-10.683c-3.232,0-10.4.279-10.4,4.917,0,2.534,2.672,3.724,4.989,3.724,4.144,0,8.012-2.177,8.012-6.387V26.076Z" transform="translate(25.494 12.084)" fill="#1a1818"/>
  <path id="Path_3" data-name="Path 3" d="M24.787,6.89H35.326v5.484h.141c2.252-4.147,5.2-6.327,9.841-6.327a13.705,13.705,0,0,1,3.517.354v9.625a16.338,16.338,0,0,0-4.5-.7c-8.012,0-9,4.639-9,11.454V41.05H24.787Z" transform="translate(49.535 12.084)" fill="#1a1818"/>
  <path id="Path_4" data-name="Path 4" d="M33.426,0H43.967V32.47l11.666-13.5H68.561L55,34.365,68.915,53.131H55.633L44.105,35.843h-.138V53.131H33.426Z" transform="translate(66.799)" fill="#1a1818"/>
  <path id="Path_5" data-name="Path 5" d="M45.526,6.89H55.643v4.642h.141a11.076,11.076,0,0,1,9.985-5.484c4.773,0,8.71,1.967,10.536,6.114C78.769,7.8,82.068,6.047,87.126,6.047c9.277,0,12.1,6.537,12.1,14.827V41.05H88.673V21.156c0-3.163-1.187-5.832-4.639-5.832-4.848,0-6.4,3.442-6.4,7.658V41.05H67.1V22.982c0-2.528.141-7.658-4.71-7.658-5.475,0-6.324,4.285-6.324,8.713V41.05H45.526Z" transform="translate(90.979 12.084)" fill="#1a1818"/>
  <path id="Path_6" data-name="Path 6" d="M87.355,36.76h-.141c-2.318,3.652-6.534,5.127-10.821,5.127-6.4,0-12.159-3.652-12.159-10.542,0-11.8,14.338-12.015,23.121-12.015,0-3.727-3.091-6.114-6.746-6.114a11.258,11.258,0,0,0-8.572,4.075l-5.622-5.76c3.865-3.658,9.487-5.484,15.04-5.484,12.3,0,15.6,6.255,15.6,17.637V41.047h-9.7Zm-2.6-10.683c-3.226,0-10.4.279-10.4,4.917,0,2.534,2.672,3.724,4.989,3.724,4.147,0,8.012-2.177,8.012-6.387V26.076Z" transform="translate(128.366 12.084)" fill="#1a1818"/>
  <path id="Path_7" data-name="Path 7" d="M76.266,6.89h10.12v4.642h.141a11.065,11.065,0,0,1,9.979-5.484c10.68,0,12.647,7.028,12.647,16.164V41.05H98.613V24.319c0-3.934-.078-9-5.481-9-5.481,0-6.327,4.285-6.327,8.713V41.05H76.266Z" transform="translate(152.41 12.084)" fill="#1a1818"/>
</svg>
