<svg xmlns="http://www.w3.org/2000/svg" width="185.041" height="56.255" viewBox="0 0 185.041 56.255">
  <path id="in-lite" d="M162.55,21.479c8.413,0,13.993,5.333,13.993,13.478v2.816H161.391V34h6.167V32.218c0-4.443-2.1-7.555-5.08-7.555-3.219,0-7.677,1.908-7.677,13.745s7.391,14.253,10.654,14.253c2.675,0,4.12-.593,9.715-4l1.66,3.26c-7.1,4.073-9.644,4.962-14.71,4.962-9.714,0-16.167-7.037-16.167-17.555,0-10.739,6.6-17.849,16.6-17.849ZM135.494,15.12V23h4.914v3.88h-4.914V49.768a2.063,2.063,0,0,0,2.083,1.9c1.416,0,2.235-.306,4.542-1.75l1.565,2.74c-3.8,3.12-6.034,4.184-8.935,4.184a7.328,7.328,0,0,1-7.743-7.685V26.88h-4.914V24.445l4.914-1.294V17.486l8.488-2.367Zm-19.8,6.359V53.515h4.394v3.2h-17.5v-3.2h4.39V26.881h-4.912V24.473l10.668-2.994h2.956Zm-102.066,0V53.515h4.393v3.2H.52v-3.2H4.915V26.881H0V24.473l10.67-2.994Zm33.426-.154c6.331,0,9.68,3.347,9.68,9.51V53.514h4.393v3.2H43.629v-3.2h4.392V32.285c0-4.566-.97-6.014-4.025-6.014-2.9,0-4.165.76-9.006,5.48V53.514h4.32v3.2h-17.5v-3.2h4.394V26.881H20.991V24.447l10.587-2.97h3.41v6.242c4.842-5.024,7.373-6.394,12.062-6.394Zm47.8-20.7V53.515H99.24v3.193h-17.5V53.515h4.392V6.033H81.146V3.593L91.867.629h2.979Zm-16.9,31.44v5.4H64.322v-2.4l10.722-3h2.9ZM180.92,15.121a4.295,4.295,0,0,1,0,8.582,4.2,4.2,0,0,1-4.093-4.3A4.185,4.185,0,0,1,180.92,15.121Zm0,.948a3.182,3.182,0,0,0-3.076,3.336,3.107,3.107,0,1,0,6.2,0A3.2,3.2,0,0,0,180.92,16.069Zm.3,1.17a1.3,1.3,0,0,1,1.389,1.358,1.131,1.131,0,0,1-.759,1.113v.025a1.569,1.569,0,0,1,.158.245l.787,1.546h-1.073l-.716-1.582h-.544v1.582h-.972V17.24h1.73Zm-.214.727h-.544v1.276h.53a.581.581,0,0,0,.615-.645.563.563,0,0,0-.6-.631ZM9.008,7.838a4.292,4.292,0,1,1-4.2,4.292,4.263,4.263,0,0,1,4.2-4.292Zm102.067,0a4.292,4.292,0,1,1-4.2,4.292,4.265,4.265,0,0,1,4.2-4.292Z" transform="translate(0 -0.628)" fill="#343e48" fill-rule="evenodd"/>
</svg>
