<svg xmlns="http://www.w3.org/2000/svg" xmlns:xlink="http://www.w3.org/1999/xlink" width="51" height="51" viewBox="0 0 51 51">
  <defs>
    <clipPath id="clip-path">
      <rect id="Rectangle_8" data-name="Rectangle 8" width="51" height="51" transform="translate(211 6266)" fill="#866161"/>
    </clipPath>
  </defs>
  <g id="Mask_Group_2" data-name="Mask Group 2" transform="translate(-211 -6266)" clip-path="url(#clip-path)">
    <g id="instagram" transform="translate(211.001 6265.999)">
      <path id="Path_8" data-name="Path 8" d="M25.508,12.406A13.086,13.086,0,1,0,38.594,25.491,13.084,13.084,0,0,0,25.508,12.406Zm0,21.579A8.493,8.493,0,1,1,34,25.491,8.491,8.491,0,0,1,25.508,33.985Z"/>
      <path id="Path_9" data-name="Path 9" d="M36.014.161C31.322-.057,19.7-.047,15,.161,10.878.355,7.238,1.351,4.3,4.286-.6,9.19.025,15.8.025,25.491.025,35.41-.527,41.866,4.3,46.7c4.924,4.921,11.628,4.278,21.205,4.278,9.826,0,13.217.006,16.692-1.339,4.724-1.834,8.289-6.056,8.638-13.64.221-4.694.208-16.313,0-21.01C50.417,6.033,45.612.6,36.014.161Zm7.427,43.29c-3.215,3.215-7.675,2.928-17.994,2.928-10.625,0-14.885.157-17.994-2.96C3.872,39.856,4.52,34.133,4.52,25.457c0-11.74-1.2-20.2,10.578-20.8,2.707-.1,3.5-.127,10.319-.127l.1.064c11.324,0,20.208-1.186,20.742,10.6.121,2.688.149,3.5.149,10.3,0,10.5.2,14.788-2.962,17.962Z"/>
      <circle id="Ellipse_2" data-name="Ellipse 2" cx="3.058" cy="3.058" r="3.058" transform="translate(36.054 8.831)"/>
    </g>
  </g>
</svg>
