<svg id="Layer_2" data-name="Layer 2" xmlns="http://www.w3.org/2000/svg" width="335.799" height="57.023" viewBox="0 0 335.799 57.023">
  <g id="Layer_1" data-name="Layer 1">
    <path id="Path_1" data-name="Path 1" d="M30.85,40.63Z" transform="translate(-6.87 -9.048)" fill="#79242f"/>
    <path id="Path_2" data-name="Path 2" d="M46.11,13.326,23.716,3.19,1.78,13.295l.062,20.117s10-2.48,18.057-1.9V15.386h8.232V31.647c7.112-.319,15.266,3.591,18.049,1.8Z" transform="translate(-0.396 -0.71)" fill="#79242f"/>
    <path id="Path_3" data-name="Path 3" d="M101.983,36.9a3.653,3.653,0,0,1,.707,2.332,3.358,3.358,0,0,1-1.454,2.884,7.322,7.322,0,0,1-4.252,1.034H89.74V28.576h6.825a6.747,6.747,0,0,1,3.98,1.01,3.249,3.249,0,0,1,1.4,2.783,3.669,3.669,0,0,1-.505,1.92,3.443,3.443,0,0,1-1.391,1.29A3.832,3.832,0,0,1,101.983,36.9Zm-9.538-6.218V34.7h3.832a3.886,3.886,0,0,0,2.176-.513,1.679,1.679,0,0,0,.777-1.485,1.718,1.718,0,0,0-.777-1.555,3.949,3.949,0,0,0-2.176-.505Zm7.517,8.224c0-1.4-1.049-2.106-3.109-2.106H92.445v4.213h4.376q3.14.023,3.14-2.083Z" transform="translate(-19.985 -6.361)" fill="#dcc7b7"/>
    <path id="Path_4" data-name="Path 4" d="M135.573,43.158V33.5l-4.812,8h-1.2l-4.8-7.874v9.538H122.18V28.576h2.231L130.2,38.23l5.682-9.67h2.231V43.142Z" transform="translate(-27.209 -6.36)" fill="#dcc7b7"/>
    <path id="Path_5" data-name="Path 5" d="M162.535,30.858v4.431h4.539v2.293h-4.539v5.581H159.83V28.58h10.641v2.278Z" transform="translate(-35.593 -6.365)" fill="#dcc7b7"/>
    <path id="Path_6" data-name="Path 6" d="M220.653,36.9a3.653,3.653,0,0,1,.707,2.332,3.358,3.358,0,0,1-1.454,2.884,7.322,7.322,0,0,1-4.252,1.034H208.41V28.576h6.825a6.747,6.747,0,0,1,3.98,1.01,3.249,3.249,0,0,1,1.4,2.783,3.669,3.669,0,0,1-.505,1.92,3.49,3.49,0,0,1-1.376,1.29A3.832,3.832,0,0,1,220.653,36.9Zm-9.538-6.218V34.7h3.832a3.886,3.886,0,0,0,2.176-.513A1.679,1.679,0,0,0,217.9,32.7a1.718,1.718,0,0,0-.777-1.555,3.949,3.949,0,0,0-2.176-.505Zm7.517,8.224c0-1.4-1.049-2.106-3.109-2.106h-4.376v4.213h4.376q3.109.023,3.109-2.083Z" transform="translate(-46.412 -6.361)" fill="#dcc7b7"/>
    <path id="Path_7" data-name="Path 7" d="M242.372,41.67a6.584,6.584,0,0,1-1.687-4.858V28.58h2.705v8.1q0,4.291,3.708,4.291t3.692-4.291v-8.1h2.666v8.232a6.607,6.607,0,0,1-1.648,4.858,7.346,7.346,0,0,1-9.405,0Z" transform="translate(-53.596 -6.365)" fill="#dcc7b7"/>
    <path id="Path_8" data-name="Path 8" d="M274.05,28.58h2.705V43.162H274.05Z" transform="translate(-61.03 -6.365)" fill="#dcc7b7"/>
    <path id="Path_9" data-name="Path 9" d="M294.65,28.58h2.713V40.869h7.618V43.2H294.65Z" transform="translate(-65.617 -6.365)" fill="#dcc7b7"/>
    <path id="Path_10" data-name="Path 10" d="M322.76,28.58h6.4a9.1,9.1,0,0,1,4.143.909,6.716,6.716,0,0,1,2.814,2.565,7.773,7.773,0,0,1,0,7.641,6.654,6.654,0,0,1-2.814,2.557,9.1,9.1,0,0,1-4.143.909h-6.374Zm6.218,12.289a6.156,6.156,0,0,0,2.822-.614,4.337,4.337,0,0,0,1.873-1.749,5.589,5.589,0,0,0,0-5.27,4.43,4.43,0,0,0-1.873-1.749,6.218,6.218,0,0,0-2.822-.614h-3.544v10Z" transform="translate(-71.877 -6.364)" fill="#dcc7b7"/>
    <path id="Path_11" data-name="Path 11" d="M367.882,40.893v2.27H357V28.58h10.641v2.278h-7.975v3.785h4.539v2.231h-4.539v4.019Z" transform="translate(-79.502 -6.365)" fill="#dcc7b7"/>
    <path id="Path_12" data-name="Path 12" d="M396.506,43.162l-2.977-4.267a5.355,5.355,0,0,1-.56,0h-3.3v4.252H387V28.579h6a7.991,7.991,0,0,1,3.3.63A4.8,4.8,0,0,1,398.457,31a5.037,5.037,0,0,1,.777,2.775,4.921,4.921,0,0,1-.777,2.829,4.8,4.8,0,0,1-2.332,1.772l3.311,4.788Zm-.956-11.535a4.112,4.112,0,0,0-2.682-.777H389.7v5.83h3.171a4.112,4.112,0,0,0,2.682-.777,2.635,2.635,0,0,0,.917-2.153A2.6,2.6,0,0,0,395.55,31.626Z" transform="translate(-86.183 -6.364)" fill="#dcc7b7"/>
    <path id="Path_13" data-name="Path 13" d="M419.507,42.859a6.848,6.848,0,0,1-2.487-1.267l.941-2.107a7.493,7.493,0,0,0,2.192,1.158,8.1,8.1,0,0,0,2.62.443,4.5,4.5,0,0,0,2.425-.521,1.555,1.555,0,0,0,.777-1.368,1.322,1.322,0,0,0-.42-1,3.109,3.109,0,0,0-1.135-.637c-.459-.148-1.08-.326-1.873-.521a22.02,22.02,0,0,1-2.7-.777,4.368,4.368,0,0,1-1.764-1.236,3.311,3.311,0,0,1-.777-2.278,3.887,3.887,0,0,1,.661-2.2,4.423,4.423,0,0,1,1.974-1.555,8.053,8.053,0,0,1,3.241-.583,10.362,10.362,0,0,1,2.627.334,7.067,7.067,0,0,1,2.246.9l-.855,2.1a8.349,8.349,0,0,0-2-.847,7.477,7.477,0,0,0-2.021-.3,4.166,4.166,0,0,0-2.379.544,1.671,1.671,0,0,0-.777,1.438,1.29,1.29,0,0,0,.451,1.018,3.109,3.109,0,0,0,1.135.622c.459.155,1.08.326,1.873.521a19.653,19.653,0,0,1,2.666.777,4.664,4.664,0,0,1,1.78,1.236,3.3,3.3,0,0,1,.731,2.215,3.887,3.887,0,0,1-.653,2.184,4.509,4.509,0,0,1-1.99,1.555,8.123,8.123,0,0,1-3.249.583,11.178,11.178,0,0,1-3.265-.435Z" transform="translate(-92.868 -6.326)" fill="#dcc7b7"/>
    <path id="Path_14" data-name="Path 14" d="M1.838,40.894,23.711,39.06l21.321,2.581s4,14.287-20.855,22.6C-.758,56.821,1.838,40.894,1.838,40.894Z" transform="translate(-0.392 -8.698)" fill="#002b49"/>
    <path id="Path_15" data-name="Path 15" d="M46.2,11.349A116.673,116.673,0,0,1,24.275.466L23.552,0l-.731.451A152.549,152.549,0,0,1,.84,11.333L0,11.706V33.751A19.5,19.5,0,0,0,11.341,51.434l12.2,5.589,12.219-5.589A19.5,19.5,0,0,0,47.1,33.751V11.66ZM24.874,4.042q2.954,1.811,6.218,3.513l-6.218,3.591ZM20.832,16.028h5.55v14.2H20.824ZM22.161,4.011V11.4L15.632,7.579C17.948,6.4,20.117,5.208,22.161,4.011ZM2.728,13.517c3.607-1.508,6.941-3,10.035-4.5l6.887,4.042A165.28,165.28,0,0,0,2.705,14.24Zm0,3.451Q10.3,16.028,18.135,15.8v6.016c-5.115.124-10.26.428-15.406.925Zm0,8.5c5.146-.5,10.292-.777,15.406-.941v5.791q-7.726.194-15.406.941ZM34.6,48.97,23.537,54.046,13.331,49.382A38.3,38.3,0,0,0,18.819,47.7l.086-.039c7-3.28,12.437-2.651,18.609-.4A17.031,17.031,0,0,1,34.6,48.97Zm5.2-3.754-.155-.054c-5.783-2.239-12.717-4.26-21.858,0a31.092,31.092,0,0,1-8.263,2.06,16.782,16.782,0,0,1-4.19-4.47H6.708A32.009,32.009,0,0,0,18.189,40.42l.093-.039c7.4-3.475,13.051-2.565,19.736,0a31.869,31.869,0,0,0,4.252,1.446,16.922,16.922,0,0,1-2.472,3.4Zm3.591-5.892a28.643,28.643,0,0,1-4.361-1.446c-5.783-2.239-12.709-4.267-21.858,0-4.967,1.928-9.2,2.542-13.284,2a16.829,16.829,0,0,1-1.166-5.908,214.172,214.172,0,0,1,41.64,0,16.627,16.627,0,0,1-.972,5.363Zm.972-8.092q-7.625-.723-15.274-.917V24.54q7.7.194,15.274.972Zm0-8.449c-5.045-.513-10.1-.824-15.274-.964V15.834q7.555.249,15.274,1.135Zm0-8.55q-8.8-.987-17.4-1.182l7-4.05q4.913,2.394,10.408,4.539Z" fill="#c8a977"/>
  </g>
</svg>
