<svg xmlns="http://www.w3.org/2000/svg" width="48.204" height="51.451" viewBox="0 0 48.204 51.451">
  <g id="streamline-icon-bulb_140x140" data-name="streamline-icon-bulb@140x140" transform="translate(-7.375 -3)">
    <path id="Path_36" data-name="Path 36" d="M65.487,100.625v4.87a3.247,3.247,0,0,1-3.247,3.247H55.747A3.247,3.247,0,0,1,52.5,105.5v-4.87" transform="translate(-27.516 -60.536)" fill="none" stroke="#fcece0" stroke-linecap="round" stroke-linejoin="round" stroke-width="2.75"/>
    <path id="Path_37" data-name="Path 37" d="M70,4.375V7.622" transform="translate(-38.523 0)" fill="none" stroke="#fcece0" stroke-linecap="round" stroke-linejoin="round" stroke-width="2.75"/>
    <path id="Path_38" data-name="Path 38" d="M8.75,65.625H12" transform="translate(0 -38.523)" fill="none" stroke="#fcece0" stroke-linecap="round" stroke-linejoin="round" stroke-width="2.75"/>
    <path id="Path_39" data-name="Path 39" d="M21.875,21.875l2.381,2.288" transform="translate(-8.255 -11.007)" fill="none" stroke="#fcece0" stroke-linecap="round" stroke-linejoin="round" stroke-width="2.75"/>
    <path id="Path_40" data-name="Path 40" d="M125.747,65.625H122.5" transform="translate(-71.543 -38.523)" fill="none" stroke="#fcece0" stroke-linecap="round" stroke-linejoin="round" stroke-width="2.75"/>
    <path id="Path_41" data-name="Path 41" d="M114.089,21.875l-2.381,2.288" transform="translate(-64.755 -11.007)" fill="none" stroke="#fcece0" stroke-linecap="round" stroke-linejoin="round" stroke-width="2.75"/>
    <path id="Path_42" data-name="Path 42" d="M38.556,53.847H51.911A14.286,14.286,0,0,0,59.844,40.86a14.876,14.876,0,0,0-14.61-14.61,14.876,14.876,0,0,0-14.61,14.619A14.286,14.286,0,0,0,38.556,53.847Z" transform="translate(-13.756 -13.758)" fill="none" stroke="#fcece0" stroke-linecap="round" stroke-linejoin="round" stroke-width="2.75"/>
    <path id="Path_43" data-name="Path 43" d="M70,122.5v4.87" transform="translate(-38.523 -74.294)" fill="none" stroke="#fcece0" stroke-linecap="round" stroke-linejoin="round" stroke-width="2.75"/>
    <path id="Path_44" data-name="Path 44" d="M70,78.75v8.117" transform="translate(-38.523 -46.778)" fill="none" stroke="#fcece0" stroke-linecap="round" stroke-linejoin="round" stroke-width="2.75"/>
    <path id="Path_45" data-name="Path 45" d="M56.875,65.625l4.87,4.87,4.87-4.87" transform="translate(-30.268 -38.523)" fill="none" stroke="#fcece0" stroke-linecap="round" stroke-linejoin="round" stroke-width="2.75"/>
  </g>
</svg>
