<svg xmlns="http://www.w3.org/2000/svg" width="48.231" height="48.231" viewBox="0 0 48.231 48.231">
  <g id="streamline-icon-data-file-bars-edit_140x140" data-name="streamline-icon-data-file-bars-edit@140x140" transform="translate(-3 -3)">
    <path id="Path_21" data-name="Path 21" d="M88.628,72.939,73.205,88.364l-7.58,1.516,1.516-7.58L82.564,66.877a4.273,4.273,0,0,1,6.048,0l.016.016a4.271,4.271,0,0,1,0,6.046Z" transform="translate(-40.026 -40.024)" fill="none" stroke="#fcece0" stroke-linecap="round" stroke-linejoin="round" stroke-width="2.75"/>
    <path id="Path_22" data-name="Path 22" d="M21.875,83.125H40.067" transform="translate(-11.436 -51.461)" fill="none" stroke="#fcece0" stroke-linecap="round" stroke-linejoin="round" stroke-width="2.75"/>
    <path id="Path_23" data-name="Path 23" d="M48.125,54.535V39.375" transform="translate(-28.59 -22.872)" fill="none" stroke="#fcece0" stroke-linecap="round" stroke-linejoin="round" stroke-width="2.75"/>
    <path id="Path_24" data-name="Path 24" d="M65.625,60.253V48.125" transform="translate(-40.026 -28.59)" fill="none" stroke="#fcece0" stroke-linecap="round" stroke-linejoin="round" stroke-width="2.75"/>
    <path id="Path_25" data-name="Path 25" d="M30.625,65.971v-9.1" transform="translate(-17.154 -34.308)" fill="none" stroke="#fcece0" stroke-linecap="round" stroke-linejoin="round" stroke-width="2.75"/>
    <path id="Path_26" data-name="Path 26" d="M18.019,43.792H7.407A3.032,3.032,0,0,1,4.375,40.76V7.407A3.032,3.032,0,0,1,7.407,4.375H28.892a3.032,3.032,0,0,1,2.142.887l5.806,5.806a3.032,3.032,0,0,1,.887,2.143v6.325" fill="none" stroke="#fcece0" stroke-linecap="round" stroke-linejoin="round" stroke-width="2.75"/>
  </g>
</svg>
