<svg xmlns="http://www.w3.org/2000/svg" width="47.97" height="47.97" viewBox="0 0 47.97 47.97">
  <g id="streamline-icon-lens-circle_140x140" data-name="streamline-icon-lens-circle@140x140" transform="translate(-3 -3)">
    <path id="Path_59" data-name="Path 59" d="M48.125,63.2A15.073,15.073,0,1,0,63.2,48.125,15.073,15.073,0,0,0,48.125,63.2Z" transform="translate(-28.677 -28.677)" fill="none" stroke="#fcece0" stroke-linecap="round" stroke-linejoin="round" stroke-width="2.75"/>
    <path id="Path_60" data-name="Path 60" d="M65.625,74.669a9.044,9.044,0,1,0,9.044-9.044A9.044,9.044,0,0,0,65.625,74.669Z" transform="translate(-40.147 -40.147)" fill="none" stroke="#fcece0" stroke-linecap="round" stroke-linejoin="round" stroke-width="2.75"/>
    <path id="Path_61" data-name="Path 61" d="M19.121,79.518a14.746,14.746,0,0,1,0-29.492" transform="translate(0 -29.923)" fill="none" stroke="#fcece0" stroke-linecap="round" stroke-linejoin="round" stroke-width="2.75"/>
    <path id="Path_62" data-name="Path 62" d="M109.375,17.5h9.044" transform="translate(-68.824 -8.603)" fill="none" stroke="#fcece0" stroke-linecap="round" stroke-linejoin="round" stroke-width="2.75"/>
    <path id="Path_63" data-name="Path 63" d="M122.5,4.375v9.044" transform="translate(-77.427 0)" fill="none" stroke="#fcece0" stroke-linecap="round" stroke-linejoin="round" stroke-width="2.75"/>
    <path id="Path_64" data-name="Path 64" d="M52.879,26.25h5.9" transform="translate(-31.793 -14.338)" fill="none" stroke="#fcece0" stroke-linecap="round" stroke-linejoin="round" stroke-width="2.75"/>
    <path id="Path_65" data-name="Path 65" d="M61.25,17.5v5.9" transform="translate(-37.28 -8.603)" fill="none" stroke="#fcece0" stroke-linecap="round" stroke-linejoin="round" stroke-width="2.75"/>
  </g>
</svg>
