<svg xmlns="http://www.w3.org/2000/svg" width="39.493" height="46.511" viewBox="0 0 39.493 46.511">
  <g id="streamline-icon-measure-ruler-divider_140x140" data-name="streamline-icon-measure-ruler-divider@140x140" transform="translate(-13.261 -3)">
    <path id="Path_90" data-name="Path 90" d="M21.326,118.364l-.962,5.728" transform="translate(-3.828 -76.164)" fill="none" stroke="#fcece0" stroke-linecap="round" stroke-linejoin="round" stroke-width="2.75"/>
    <path id="Path_91" data-name="Path 91" d="M69.971,118.364l.96,5.728" transform="translate(-36.973 -76.164)" fill="none" stroke="#fcece0" stroke-linecap="round" stroke-linejoin="round" stroke-width="2.75"/>
    <path id="Path_92" data-name="Path 92" d="M19.545,37.508l-4.909,26.35,5.726.962L24.6,42.448" transform="translate(0 -22.139)" fill="none" stroke="#fcece0" stroke-linecap="round" stroke-linejoin="round" stroke-width="2.75"/>
    <path id="Path_93" data-name="Path 93" d="M48.557,42.719,52.8,65.093l5.728-.962L53.64,37.917" transform="translate(-22.665 -22.412)" fill="none" stroke="#fcece0" stroke-linecap="round" stroke-linejoin="round" stroke-width="2.75"/>
    <path id="Path_94" data-name="Path 94" d="M40.725,26.23a5.807,5.807,0,0,1-6.775,5.728,6.024,6.024,0,0,1-4.839-6.037V23.327a1.452,1.452,0,0,1,1.452-1.452h8.71a1.452,1.452,0,0,1,1.452,1.452Z" transform="translate(-9.671 -11.693)" fill="none" stroke="#fcece0" stroke-linecap="round" stroke-linejoin="round" stroke-width="2.75"/>
    <path id="Path_95" data-name="Path 95" d="M46.614,10.182V4.375" transform="translate(-21.367)" fill="none" stroke="#fcece0" stroke-linecap="round" stroke-linejoin="round" stroke-width="2.75"/>
    <path id="Path_96" data-name="Path 96" d="M84.518,47.927h8.71a2.9,2.9,0,0,0,2.9-2.9V7.278a2.9,2.9,0,0,0-2.9-2.9h-8.71a2.9,2.9,0,0,0-2.9,2.9V17.441" transform="translate(-44.753)" fill="none" stroke="#fcece0" stroke-linecap="round" stroke-linejoin="round" stroke-width="2.75"/>
    <path id="Path_97" data-name="Path 97" d="M107.864,30.625h5.807" transform="translate(-62.293 -17.54)" fill="none" stroke="#fcece0" stroke-linecap="round" stroke-linejoin="round" stroke-width="2.75"/>
    <path id="Path_98" data-name="Path 98" d="M107.864,56.875h5.807" transform="translate(-62.293 -35.079)" fill="none" stroke="#fcece0" stroke-linecap="round" stroke-linejoin="round" stroke-width="2.75"/>
    <path id="Path_99" data-name="Path 99" d="M107.864,83.125h5.807" transform="translate(-62.293 -52.619)" fill="none" stroke="#fcece0" stroke-linecap="round" stroke-linejoin="round" stroke-width="2.75"/>
    <path id="Path_100" data-name="Path 100" d="M107.864,109.375h5.807" transform="translate(-62.293 -70.158)" fill="none" stroke="#fcece0" stroke-linecap="round" stroke-linejoin="round" stroke-width="2.75"/>
  </g>
</svg>
