<svg xmlns="http://www.w3.org/2000/svg" width="48.398" height="48.398" viewBox="0 0 48.398 48.398">
  <g id="streamline-icon-multiple-actions-share-1_140x140" data-name="streamline-icon-multiple-actions-share-1@140x140" transform="translate(-3 -3)">
    <path id="Path_77" data-name="Path 77" d="M4.375,83.125v18.259" transform="translate(0 -51.361)" fill="none" stroke="#fcece0" stroke-linecap="round" stroke-linejoin="round" stroke-width="2.75"/>
    <path id="Path_78" data-name="Path 78" d="M4.375,104.048H34.807a6.086,6.086,0,0,0-6.086-6.086H21.113a6.086,6.086,0,0,0-6.086-6.086H4.375" transform="translate(0 -57.068)" fill="none" stroke="#fcece0" stroke-linecap="round" stroke-linejoin="round" stroke-width="2.75"/>
    <path id="Path_79" data-name="Path 79" d="M35,109.375h6.086" transform="translate(-19.974 -68.482)" fill="none" stroke="#fcece0" stroke-linecap="round" stroke-linejoin="round" stroke-width="2.75"/>
    <path id="Path_80" data-name="Path 80" d="M87.5,10.461a6.086,6.086,0,1,0,6.086-6.086A6.086,6.086,0,0,0,87.5,10.461Z" transform="translate(-54.215 0)" fill="none" stroke="#fcece0" stroke-linecap="round" stroke-linejoin="round" stroke-width="2.75"/>
    <path id="Path_81" data-name="Path 81" d="M85.026,78.557h4.565l1.522-15.216h4.565V58.776a10.651,10.651,0,1,0-21.3,0v4.565H78.94" transform="translate(-45.654 -28.534)" fill="none" stroke="#fcece0" stroke-linecap="round" stroke-linejoin="round" stroke-width="2.75"/>
    <path id="Path_82" data-name="Path 82" d="M28.437,9.7a5.326,5.326,0,1,0,5.326-5.326A5.326,5.326,0,0,0,28.437,9.7Z" transform="translate(-15.694 0)" fill="none" stroke="#fcece0" stroke-linecap="round" stroke-linejoin="round" stroke-width="2.75"/>
    <path id="Path_83" data-name="Path 83" d="M21,43.946a9.13,9.13,0,0,1,14.778-1.44" transform="translate(-10.843 -22.834)" fill="none" stroke="#fcece0" stroke-linecap="round" stroke-linejoin="round" stroke-width="2.75"/>
  </g>
</svg>
