<svg xmlns="http://www.w3.org/2000/svg" width="41.504" height="41.504" viewBox="0 0 41.504 41.504">
  <g id="streamline-icon-messages-people-person-bubble-square-1_140x140" data-name="streamline-icon-messages-people-person-bubble-square-1@140x140" transform="translate(-2.829 -3)">
    <path id="Path_101" data-name="Path 101" d="M55.842,30.1h5.144v7.717L68.7,30.1h2.562a2.582,2.582,0,0,0,2.582-2.582V6.947a2.572,2.572,0,0,0-2.572-2.572H50.7a2.572,2.572,0,0,0-2.572,2.572v7.717" transform="translate(-30.889)" fill="none" stroke="#fcece0" stroke-linecap="round" stroke-linejoin="round" stroke-width="2.75"/>
    <path id="Path_102" data-name="Path 102" d="M115.937,45.937h0" transform="translate(-78.767 -29.345)" fill="none" stroke="#fcece0" stroke-linecap="round" stroke-linejoin="round" stroke-width="2.75"/>
    <path id="Path_103" data-name="Path 103" d="M114.393,45.937a.643.643,0,1,0,.643.643.643.643,0,0,0-.643-.643" transform="translate(-77.222 -29.345)" fill="none" stroke="#fcece0" stroke-linecap="round" stroke-linejoin="round" stroke-width="2.75"/>
    <path id="Path_104" data-name="Path 104" d="M72.187,45.937h0" transform="translate(-47.878 -29.345)" fill="none" stroke="#fcece0" stroke-linecap="round" stroke-linejoin="round" stroke-width="2.75"/>
    <path id="Path_105" data-name="Path 105" d="M70.643,45.937a.643.643,0,1,0,.643.643.643.643,0,0,0-.643-.643" transform="translate(-46.333 -29.345)" fill="none" stroke="#fcece0" stroke-linecap="round" stroke-linejoin="round" stroke-width="2.75"/>
    <path id="Path_106" data-name="Path 106" d="M94.062,45.937h0" transform="translate(-63.322 -29.345)" fill="none" stroke="#fcece0" stroke-linecap="round" stroke-linejoin="round" stroke-width="2.75"/>
    <path id="Path_107" data-name="Path 107" d="M92.518,45.937a.643.643,0,1,0,.643.643.643.643,0,0,0-.643-.643" transform="translate(-61.778 -29.345)" fill="none" stroke="#fcece0" stroke-linecap="round" stroke-linejoin="round" stroke-width="2.75"/>
    <path id="Path_108" data-name="Path 108" d="M19.687,62.662a5.787,5.787,0,1,0,5.787-5.787A5.787,5.787,0,0,0,19.687,62.662Z" transform="translate(-10.811 -37.067)" fill="none" stroke="#fcece0" stroke-linecap="round" stroke-linejoin="round" stroke-width="2.75"/>
    <path id="Path_109" data-name="Path 109" d="M24.953,114.014a10.381,10.381,0,0,0-20.578,0" transform="translate(0 -71.056)" fill="none" stroke="#fcece0" stroke-linecap="round" stroke-linejoin="round" stroke-width="2.75"/>
  </g>
</svg>
