<svg xmlns="http://www.w3.org/2000/svg" width="47.79" height="43.295" viewBox="0 0 47.79 43.295">
  <g id="streamline-icon-rating-star-winner_140x140" data-name="streamline-icon-rating-star-winner@140x140" transform="translate(-2.976 -9.541)">
    <path id="Path_74" data-name="Path 74" d="M90.992,72.182l2.5,4.5h4.959a1.359,1.359,0,0,1,.977,2.325l-4.553,4.969,2.522,5.8a1.375,1.375,0,0,1-1.957,1.719l-6.1-3.432-6.1,3.43a1.375,1.375,0,0,1-1.959-1.719l2.438-5.6" transform="translate(-50.48 -40.274)" fill="none" stroke="#fcece0" stroke-linecap="round" stroke-linejoin="round" stroke-width="2.75"/>
    <path id="Path_75" data-name="Path 75" d="M13.229,72.182l-2.5,4.5H5.77a1.359,1.359,0,0,0-.977,2.325l4.553,4.969-2.522,5.8A1.375,1.375,0,0,0,8.78,91.492l6.1-3.432,6.1,3.43a1.375,1.375,0,0,0,1.959-1.719l-2.438-5.6" transform="translate(0 -40.274)" fill="none" stroke="#fcece0" stroke-linecap="round" stroke-linejoin="round" stroke-width="2.75"/>
    <path id="Path_76" data-name="Path 76" d="M44.854,11.455,48.829,19.4l7.649.766a.969.969,0,0,1,.588,1.649l-6.3,6.3L53.1,36.679A.967.967,0,0,1,51.734,37.8l-7.745-3.872L36.243,37.8a.967.967,0,0,1-1.365-1.119l2.335-8.561-6.3-6.3a.969.969,0,0,1,.588-1.651l7.647-.766,3.972-7.947a.967.967,0,0,1,1.735,0Z" transform="translate(-17.248)" fill="none" stroke="#fcece0" stroke-linecap="round" stroke-linejoin="round" stroke-width="2.75"/>
  </g>
</svg>
