<svg xmlns="http://www.w3.org/2000/svg" width="51.717" height="53.32" viewBox="0 0 51.717 53.32">
  <g id="streamline-icon-shipment-deliver_140x140" data-name="streamline-icon-shipment-deliver@140x140" transform="translate(-6.042 -3.528)">
    <path id="Path_70" data-name="Path 70" d="M28.349,94.921l-17.085-1.3A3.517,3.517,0,0,0,7.846,98.71h0a3.508,3.508,0,0,0,1.911,1.721l23.63,8.862a6.794,6.794,0,0,0,4.529.084l18.1-6.033" transform="translate(0 -54.266)" fill="none" stroke="#fcece0" stroke-linecap="round" stroke-linejoin="round" stroke-width="2.75"/>
    <path id="Path_71" data-name="Path 71" d="M76.49,85.45H63.379a3.017,3.017,0,0,1-2.865-2.065h0a3.019,3.019,0,0,1,2.07-3.87l13.448-3.669a10.191,10.191,0,0,1,4.357-.226l7.99,1.332" transform="translate(-32.356 -43.177)" fill="none" stroke="#fcece0" stroke-linecap="round" stroke-linejoin="round" stroke-width="2.75"/>
    <path id="Path_72" data-name="Path 72" d="M18.783,32.391V8.3a3.49,3.49,0,0,1,3.578-3.4H52.576a3.49,3.49,0,0,1,3.576,3.4V25.6" transform="translate(-6.922 0)" fill="none" stroke="#fcece0" stroke-linecap="round" stroke-linejoin="round" stroke-width="2.75"/>
    <path id="Path_73" data-name="Path 73" d="M62.276,18.494H55.482a1.7,1.7,0,0,1-1.7-1.7V4.906H63.975V16.8a1.7,1.7,0,0,1-1.7,1.7Z" transform="translate(-28.333 -0.002)" fill="none" stroke="#fcece0" stroke-linecap="round" stroke-linejoin="round" stroke-width="2.75"/>
  </g>
</svg>
