<svg xmlns="http://www.w3.org/2000/svg" width="50.443" height="50.445" viewBox="0 0 50.443 50.445">
  <g id="streamline-icon-team-meeting-message-lock-1_140x140" data-name="streamline-icon-team-meeting-message-lock-1@140x140" transform="translate(-2.63 -3)">
    <path id="Path_51" data-name="Path 51" d="M11.515,80.684a6.309,6.309,0,1,0,6.309-6.309A6.309,6.309,0,0,0,11.515,80.684Z" transform="translate(-4.562 -44.763)" fill="none" stroke="#fcece0" stroke-linecap="round" stroke-linejoin="round" stroke-width="2.75"/>
    <path id="Path_52" data-name="Path 52" d="M22.15,124.431a9.409,9.409,0,0,0-17.769,0" transform="translate(0 -72.737)" fill="none" stroke="#fcece0" stroke-linecap="round" stroke-linejoin="round" stroke-width="2.75"/>
    <path id="Path_53" data-name="Path 53" d="M104.534,85.1a6.309,6.309,0,0,1-10.921,6.156" transform="translate(-57.062 -51.623)" fill="none" stroke="#fcece0" stroke-linecap="round" stroke-linejoin="round" stroke-width="2.75"/>
    <path id="Path_54" data-name="Path 54" d="M100.9,124.431a9.409,9.409,0,0,0-17.769,0" transform="translate(-50.359 -72.737)" fill="none" stroke="#fcece0" stroke-linecap="round" stroke-linejoin="round" stroke-width="2.75"/>
    <path id="Path_55" data-name="Path 55" d="M74.939,4.375h1.577A3.155,3.155,0,0,1,79.671,7.53V24.88a3.155,3.155,0,0,1-3.155,3.155H67.052L57.589,37.5V28.034H51.28a3.155,3.155,0,0,1-3.155-3.155V7.53A3.155,3.155,0,0,1,51.28,4.375h3.155" transform="translate(-27.973 0)" fill="none" stroke="#fcece0" stroke-linecap="round" stroke-linejoin="round" stroke-width="2.75"/>
    <path id="Path_56" data-name="Path 56" d="M90.47,37.187a.789.789,0,1,1-.789.789.789.789,0,0,1,.789-.789" transform="translate(-54.548 -20.983)" fill="none" stroke="#fcece0" stroke-linecap="round" stroke-linejoin="round" stroke-width="2.75"/>
    <path id="Path_57" data-name="Path 57" d="M69.994,21.875H85.767V34.493H69.994Z" transform="translate(-41.958 -11.191)" fill="none" stroke="#fcece0" stroke-linecap="round" stroke-linejoin="round" stroke-width="2.75"/>
    <path id="Path_58" data-name="Path 58" d="M80.2,10.684v-2.1a4.206,4.206,0,0,1,8.412,0v2.1" transform="translate(-48.486)" fill="none" stroke="#fcece0" stroke-linecap="round" stroke-linejoin="round" stroke-width="2.75"/>
  </g>
</svg>
